# xmcd
#
# Track frame offsets:
#	150
#	37703
#	62061
#	93905
#	134638
#	171116
#	205411
#	232520
#	252084
#	280725
#
# Disc length: 4018 seconds
#
# Revision: 1
# Processed by: cddbd v1.5.2PL0 Copyright (c) Steve Scherf et al.
# Submitted via: audiograbber 1.83.01
#
DISCID=7d0fb00a
DTITLE=Grateful Dead - 73-03-16 Nassau Veterans Memorial Coliseum, Uniondale NY
DYEAR=1900
DGENRE=
TTITLE0=China Cat Sunflower
TTITLE1=I Know You Rider
TTITLE2=Jack Straw
TTITLE3=Wave That Flag
TTITLE4=Looks Like Rain
TTITLE5=Ramble On Rose
TTITLE6=Box Of Rain
TTITLE7=BIODTL
TTITLE8=They Love Each Other
TTITLE9=El Paso
EXTD=
EXTT0=
EXTT1=
EXTT2=
EXTT3=
EXTT4=
EXTT5=
EXTT6=
EXTT7=
EXTT8=
EXTT9=
PLAYORDER=
